<svg width="32" height="32" viewBox="0 0 32 32" fill="none" xmlns="http://www.w3.org/2000/svg">
<path d="M15.3332 11.3333V13.5383C14.9421 13.7711 14.6665 14.1797 14.6665 14.6666C14.6665 15.4016 15.2648 15.9999 15.9998 15.9999C16.7348 15.9999 17.3331 15.4016 17.3331 14.6666C17.3331 14.1796 17.0576 13.7711 16.6664 13.5383V11.3333C16.6664 10.9648 16.3683 10.6666 15.9998 10.6666C15.6313 10.6666 15.3332 10.9649 15.3332 11.3333Z" fill="#1F80B7" fill-opacity="0.5"/>
<path d="M27.3333 0C24.7168 0 22.6666 2.34244 22.6666 5.33331C22.6666 7.47962 24.2855 11.2818 26.6666 11.9034V24.6666C26.6666 27.9752 23.9752 30.6666 20.6666 30.6666C17.4827 30.6666 14.8957 28.1669 14.7034 25.0306C16.7939 24.7647 18.6666 24.2672 18.6666 23.3333V20.7681C21.0169 19.7364 22.6666 17.3933 22.6666 14.6666C22.6666 11.9398 21.0169 9.59662 18.6666 8.565V4.66669C18.6666 2.76306 10.8919 2.66669 9.33331 2.66669C7.77475 2.66669 0 2.763 0 4.66669V23.3334C0 25.237 7.77475 25.3334 9.33331 25.3334C9.96469 25.3334 11.6174 25.3153 13.3588 25.1699C13.6194 28.9788 16.7929 32 20.6667 32C24.7103 32 28 28.7103 28 24.6667V11.9034C30.3811 11.2818 32 7.47962 32 5.33331C32 2.34244 29.9499 0 27.3333 0ZM21.3333 14.6667C21.3333 17.6074 18.9408 20 16 20C13.0592 20 10.6667 17.6074 10.6667 14.6667C10.6667 11.7259 13.0592 9.33337 16 9.33337C18.9408 9.33337 21.3333 11.7259 21.3333 14.6667ZM9.33331 4C12.5 4 15.265 4.33594 16.6178 4.66669C15.265 4.99738 12.5 5.33331 9.33331 5.33331C6.16662 5.33331 3.40169 4.99738 2.04881 4.66663C3.40169 4.33594 6.16669 4 9.33331 4ZM4 23.6727C2.66969 23.4992 1.70281 23.2854 1.33331 23.1016V5.81175C2.05687 6.06456 3.00219 6.24356 4 6.36906V23.6727ZM9.33331 24C7.88244 24 6.51837 23.9289 5.33331 23.8206V6.50537C7.06525 6.64875 8.70506 6.66669 9.33331 6.66669C10.4873 6.66669 15.0426 6.61181 17.3333 5.81181V8.13481C16.9024 8.04688 16.4566 8 16 8C12.3242 8 9.33331 10.9909 9.33331 14.6667C9.33331 18.3425 12.3243 21.3333 16 21.3333C16.4566 21.3333 16.9024 21.2864 17.3333 21.1986V23.1016C16.5651 23.4837 13.2578 24 9.33331 24ZM27.3333 10.6667C25.6471 10.6667 24 7.29231 24 5.33337C24 3.09056 25.4642 1.33337 27.3333 1.33337C29.2024 1.33337 30.6666 3.09056 30.6666 5.33337C30.6667 7.29231 29.0196 10.6667 27.3333 10.6667Z" fill="#1F80B7" fill-opacity="0.5"/>
</svg>
