<svg width="30" height="30" viewBox="0 0 30 30" fill="none" xmlns="http://www.w3.org/2000/svg">
<mask id="mask0_2631_4864" style="mask-type:alpha" maskUnits="userSpaceOnUse" x="0" y="0" width="30" height="30">
<path fill-rule="evenodd" clip-rule="evenodd" d="M15 28.125C22.2487 28.125 28.125 22.2487 28.125 15C28.125 7.75126 22.2487 1.875 15 1.875C7.75126 1.875 1.875 7.75126 1.875 15C1.875 22.2487 7.75126 28.125 15 28.125ZM15 30C23.2843 30 30 23.2843 30 15C30 6.71573 23.2843 0 15 0C6.71573 0 0 6.71573 0 15C0 23.2843 6.71573 30 15 30Z" fill="black"/>
<path fill-rule="evenodd" clip-rule="evenodd" d="M8.03399 17.9385C8.48217 17.6792 9.05566 17.8324 9.31492 18.2806C10.451 20.2446 12.5722 21.5625 15.0001 21.5625C17.4279 21.5625 19.5491 20.2446 20.6852 18.2806C20.9444 17.8324 21.5179 17.6792 21.9661 17.9385C22.4143 18.1978 22.5674 18.7712 22.3082 19.2194C20.8507 21.739 18.1243 23.4375 15.0001 23.4375C11.8758 23.4375 9.14938 21.739 7.69191 19.2194C7.43265 18.7712 7.58581 18.1978 8.03399 17.9385Z" fill="black"/>
<path d="M13.125 12.1875C13.125 13.7408 12.2855 15 11.25 15C10.2145 15 9.375 13.7408 9.375 12.1875C9.375 10.6342 10.2145 9.375 11.25 9.375C12.2855 9.375 13.125 10.6342 13.125 12.1875Z" fill="black"/>
<path d="M20.625 12.1875C20.625 13.7408 19.7855 15 18.75 15C17.7145 15 16.875 13.7408 16.875 12.1875C16.875 10.6342 17.7145 9.375 18.75 9.375C19.7855 9.375 20.625 10.6342 20.625 12.1875Z" fill="black"/>
</mask>
<g mask="url(#mask0_2631_4864)">
<rect width="30" height="30" fill="white"/>
</g>
</svg>
