<svg width="32" height="32" viewBox="0 0 32 32" fill="none" xmlns="http://www.w3.org/2000/svg">
<path fill-rule="evenodd" clip-rule="evenodd" d="M19.9584 26.7174C19.9584 27.4595 20.9208 27.7509 21.3324 27.1334L29.7366 14.5272C30.0688 14.0288 29.7115 13.3612 29.1125 13.3612H22.5972V5.28269C22.5972 4.54063 21.6348 4.24923 21.2232 4.86666L12.819 17.4729C12.4868 17.9713 12.8441 18.6389 13.4431 18.6389H19.9584V26.7174Z" fill="#16192C"/>
<path opacity="0.3" fill-rule="evenodd" clip-rule="evenodd" d="M4.12503 8.26392C4.12503 7.43549 4.79661 6.76392 5.62503 6.76392H13.1806C14.009 6.76392 14.6806 7.43549 14.6806 8.26392V9.22225C14.6806 10.0507 14.009 10.7222 13.1806 10.7222H5.62504C4.79661 10.7222 4.12503 10.0507 4.12503 9.22225V8.26392ZM4.12503 24.0972C4.12503 23.2688 4.79661 22.5972 5.62503 22.5972H13.1806C14.009 22.5972 14.6806 23.2688 14.6806 24.0972V25.0556C14.6806 25.884 14.009 26.5556 13.1806 26.5556H5.62504C4.79661 26.5556 4.12503 25.884 4.12503 25.0556V24.0972ZM2.98615 14.6806C2.15772 14.6806 1.48615 15.3522 1.48615 16.1806V17.1389C1.48615 17.9673 2.15772 18.6389 2.98614 18.6389H9.22226C10.0507 18.6389 10.7223 17.9673 10.7223 17.1389V16.1806C10.7223 15.3522 10.0507 14.6806 9.22226 14.6806H2.98615Z" fill="#16192C"/>
</svg>
